<svg xmlns="http://www.w3.org/2000/svg" xmlns:xlink="http://www.w3.org/1999/xlink" width="1920" zoomAndPan="magnify" viewBox="0 0 1440 1079.999946" height="1440" preserveAspectRatio="xMidYMid meet" version="1.2"><defs><clipPath id="14152c5e31"><path d="M 25 18.898438 L 941 18.898438 L 941 1051 L 25 1051 Z M 25 18.898438 "/></clipPath></defs><g id="7953d763dc"><path style=" stroke:none;fill-rule:nonzero;fill:#e30a17;fill-opacity:1;" d="M 1403.5625 441.042969 C 1415.277344 423.519531 1427.136719 406.042969 1438.949219 388.617188 L 1288.980469 435.574219 C 1282.738281 437.507812 1276.105469 434.796875 1273.054688 429.039062 C 1250.691406 387.359375 1217.824219 354.296875 1182.632812 319.925781 L 1172.125 475.847656 C 1171.738281 481.074219 1168.351562 485.675781 1163.460938 487.515625 C 1136.257812 498.117188 1109.003906 508.863281 1081.796875 519.65625 C 1063.984375 526.675781 1046.121094 533.695312 1028.210938 540.714844 C 1074.875 562.933594 1125.558594 581.183594 1171.160156 591.878906 C 1177.304688 593.332031 1181.664062 598.898438 1181.519531 605.242188 C 1180.5 649.96875 1181.855469 697.023438 1185.679688 745.625 C 1212.5 706.363281 1236.945312 668.945312 1259.164062 628.621094 C 1262.261719 623.152344 1268.601562 620.441406 1274.75 622.183594 C 1306.023438 631.234375 1338.84375 640.09375 1370.453125 648.566406 C 1390.394531 653.9375 1410.777344 659.410156 1430.960938 665.074219 C 1420.410156 649.484375 1409.808594 633.703125 1399.253906 618.070312 C 1381.632812 592.074219 1364.015625 566.078125 1346.539062 540.617188 C 1343.34375 536.066406 1343.34375 530.015625 1346.539062 525.417969 C 1365.464844 497.632812 1384.492188 469.3125 1403.5625 441.042969 "/><g clip-rule="nonzero" clip-path="url(#14152c5e31)"><path style=" stroke:none;fill-rule:nonzero;fill:#e30a17;fill-opacity:1;" d="M 709.785156 1034.761719 C 808.875 1009.445312 891.796875 948.304688 940.207031 866.882812 C 831.09375 937.609375 689.40625 960.3125 564.855469 924.148438 C 523.5625 912.097656 484.882812 894.523438 449.691406 871.820312 C 370.253906 820.460938 309.890625 742.71875 279.878906 652.972656 C 275.472656 639.996094 271.84375 626.589844 268.746094 613.132812 C 254.996094 552.332031 254.898438 488 268.550781 427.003906 C 281.332031 370.269531 317.347656 324.089844 347.359375 290.300781 C 416.96875 211.738281 510.976562 158.632812 611.953125 140.625 C 718.839844 121.699219 833.613281 143.917969 927.621094 199.199219 C 832.742188 90.039062 690.472656 21.253906 545.78125 18.734375 C 543.070312 18.636719 540.3125 18.636719 537.601562 18.636719 C 367.640625 18.636719 199.039062 109.644531 106.191406 252.203125 C 80.777344 291.171875 60.882812 334.253906 46.941406 380.242188 C 0.375 534.179688 29.128906 708.398438 123.910156 846.019531 C 179.675781 927.199219 266.179688 988.96875 361.300781 1015.542969 C 499.550781 1054.222656 610.261719 1060.367188 709.785156 1034.761719 "/></g></g></svg>