<svg xmlns="http://www.w3.org/2000/svg" xmlns:xlink="http://www.w3.org/1999/xlink" width="1920" zoomAndPan="magnify" viewBox="0 0 1440 1079.999946" height="1440" preserveAspectRatio="xMidYMid meet" version="1.2"><g id="6a47c313aa"><path style=" stroke:none;fill-rule:nonzero;fill:#ba1e2a;fill-opacity:1;" d="M 1206.339844 1.921875 L 239.753906 1.921875 C 154.082031 1.921875 166.050781 123.457031 166.050781 123.457031 L 1281.773438 123.457031 C 1281.773438 123.457031 1292.011719 1.921875 1206.339844 1.921875 Z M 1206.339844 1.921875 "/><path style=" stroke:none;fill-rule:nonzero;fill:#db1f27;fill-opacity:1;" d="M 724.667969 1.921875 L 240.523438 1.921875 C 240.523438 1.921875 310.246094 -0.0820312 310.246094 203.179688 L 310.246094 741.175781 L 722.9375 1078.515625 L 722.9375 1079.917969 L 723.789062 1079.203125 L 724.640625 1079.917969 L 724.640625 1078.515625 L 1137.328125 741.175781 L 1137.328125 203.179688 C 1137.355469 -0.0820312 1207.109375 1.921875 1207.109375 1.921875 Z M 724.667969 1.921875 "/><path style=" stroke:none;fill-rule:nonzero;fill:#ffffff;fill-opacity:1;" d="M 758.128906 662.496094 L 723.789062 592.957031 L 689.503906 662.496094 L 612.75 662.496094 L 677.261719 718.800781 L 655.164062 804.207031 L 723.789062 756.4375 L 792.441406 804.207031 L 770.34375 718.800781 L 834.878906 662.496094 Z M 758.128906 662.496094 "/><path style=" stroke:none;fill-rule:nonzero;fill:#ffffff;fill-opacity:1;" d="M 723.816406 123.457031 C 584.585938 123.457031 471.710938 236.34375 471.710938 375.558594 C 471.710938 461.265625 514.507812 536.925781 579.839844 582.46875 C 543.742188 545.929688 521.453125 495.71875 521.453125 440.289062 C 521.453125 328.53125 612.039062 237.933594 723.816406 237.933594 C 835.59375 237.933594 926.179688 328.53125 926.179688 440.289062 C 926.179688 495.71875 903.890625 545.902344 867.792969 582.46875 C 933.125 536.925781 975.921875 461.265625 975.921875 375.558594 C 975.921875 236.316406 863.042969 123.457031 723.816406 123.457031 Z M 723.816406 123.457031 "/></g></svg>